# xmcd CD database file
#
# Track frame offsets:
#	150
#	19401
#	36428
#
# Disc length: 743 seconds
#
# Revision: 1
# Processed by: cddbd v1.5.2PL0 Copyright (c) Steve Scherf et al.
# Submitted via: jetAudio 7
#
DISCID=2202e503
DTITLE=?????????? - ??????
DYEAR=1998
DGENRE=Rock
TTITLE0=??????
TTITLE1=?????
TTITLE2=????????????
EXTD=YEAR: 1998
EXTT0=
EXTT1=
EXTT2=
PLAYORDER=
